# xmcd
#
# Track frame offsets:
#	150
#	18252
#	31745
#	51650
#	67692
#	83085
#	109412
#	119217
#	135210
#	144955
#	152912
#	167035
#	184235
#	205325
#
# Disc length: 3021 seconds
#
# Revision: 1
# Processed by: cddbd v1.5PL3 Copyright (c) Steve Scherf et al.
# Submitted via: audiograbber 1.83.01
#
DISCID=bf0bcb0e
DTITLE=Lô Borges - Bis [CD1)
DYEAR=1972
DGENRE=MPB
TTITLE0=O Trem Azul
TTITLE1=A Via-Láctea
TTITLE2=Vento De Maio (Part. Elis Regina)
TTITLE3=Nuvem Cigana
TTITLE4=Ritata
TTITLE5=Manuel O Audaz (Part. Toninho Horta)
TTITLE6=Canção Postal
TTITLE7=Sempre-Viva
TTITLE8=Você Fica Melhor Assim
TTITLE9=Como O Machado
TTITLE10=Olho Nu
TTITLE11=A Força Do Vento
TTITLE12=Meu Filme
TTITLE13=Vai Vai Vai (Part. Uakti)
EXTD=
EXTT0=
EXTT1=
EXTT2=
EXTT3=
EXTT4=
EXTT5=
EXTT6=
EXTT7=
EXTT8=
EXTT9=
EXTT10=
EXTT11=
EXTT12=
EXTT13=
PLAYORDER=
